<?xml version="1.0" encoding="UTF-8"?>
<!DOCTYPE svg
PUBLIC "-//W3C//DTD SVG 1.1//EN"
       "http://www.w3.org/Graphics/SVG/1.1/DTD/svg11.dtd">
<svg viewBox="139 49 637 479" width="498px" height="430px" xmlns="http://www.w3.org/2000/svg" version="1.1">
   <rect width="90" height="20" x="157" y="224" style="fill:#007;stroke:black;"/>
   <text width="90" height="20" x="162" y="238" style="fill:#fff;" font-family="Arial" font-size="16px"> items</text>
   <rect width="90" height="20" x="157" y="244" style="fill:#aea;stroke:black;"/>
   <text width="90" height="20" x="162" y="258" style="fill:black;" font-family="Arial" font-size="16px">itemid</text>
   <rect width="90" height="20" x="157" y="264" style="fill:none;stroke:black;"/>
   <text width="90" height="20" x="162" y="278" style="fill:black;" font-family="Arial" font-size="16px">product</text>
   <rect width="90" height="20" x="157" y="284" style="fill:none;stroke:black;"/>
   <text width="90" height="20" x="162" y="298" style="fill:black;" font-family="Arial" font-size="16px">company</text>
   <rect width="90" height="20" x="157" y="304" style="fill:none;stroke:black;"/>
   <text width="90" height="20" x="162" y="318" style="fill:black;" font-family="Arial" font-size="16px">color</text>
   <rect width="90" height="20" x="157" y="324" style="fill:none;stroke:black;"/>
   <text width="90" height="20" x="162" y="338" style="fill:black;" font-family="Arial" font-size="16px">price</text>
   <rect width="90" height="20" x="157" y="344" style="fill:none;stroke:black;"/>
   <text width="90" height="20" x="162" y="358" style="fill:black;" font-family="Arial" font-size="16px">description</text>
   <rect width="90" height="20" x="157" y="364" style="fill:none;stroke:black;"/>
   <text width="90" height="20" x="162" y="378" style="fill:black;" font-family="Arial" font-size="16px">image</text>
   <rect width="90" height="20" x="157" y="384" style="fill:none;stroke:black;"/>
   <text width="90" height="20" x="162" y="398" style="fill:black;" font-family="Arial" font-size="16px">isbestseller</text>
   <rect width="90" height="20" x="157" y="404" style="fill:none;stroke:black;"/>
   <text width="90" height="20" x="162" y="418" style="fill:black;" font-family="Arial" font-size="16px">isNew</text>
   <rect width="90" height="20" x="157" y="424" style="fill:none;stroke:black;"/>
   <text width="90" height="20" x="162" y="438" style="fill:black;" font-family="Arial" font-size="16px">inStock</text>
   <rect width="90" height="20" x="157" y="444" style="fill:none;stroke:black;"/>
   <text width="90" height="20" x="162" y="458" style="fill:black;" font-family="Arial" font-size="16px">rating</text>
   <rect width="197" height="20" x="425" y="219" style="fill:#007;stroke:black;"/>
   <text width="197" height="20" x="430" y="233" style="fill:#fff;" font-family="Arial" font-size="16px"> messages</text>
   <rect width="197" height="20" x="425" y="239" style="fill:#aea;stroke:black;"/>
   <text width="197" height="20" x="430" y="253" style="fill:black;" font-family="Arial" font-size="16px">messageid</text>
   <rect width="197" height="20" x="425" y="259" style="fill:none;stroke:black;"/>
   <text width="197" height="20" x="430" y="273" style="fill:black;" font-family="Arial" font-size="16px">message</text>
   <rect width="197" height="20" x="425" y="279" style="fill:none;stroke:black;"/>
   <text width="197" height="20" x="430" y="293" style="fill:black;" font-family="Arial" font-size="16px">scheduled_at</text>
   <rect width="197" height="20" x="425" y="299" style="fill:none;stroke:black;"/>
   <text width="197" height="20" x="430" y="313" style="fill:black;" font-family="Arial" font-size="16px">destination_phone_number</text>
   <rect width="197" height="20" x="425" y="319" style="fill:none;stroke:black;"/>
   <text width="197" height="20" x="430" y="333" style="fill:black;" font-family="Arial" font-size="16px">userid</text>
   <rect width="197" height="20" x="425" y="339" style="fill:none;stroke:black;"/>
   <text width="197" height="20" x="430" y="353" style="fill:black;" font-family="Arial" font-size="16px">created_at</text>
   <rect width="197" height="20" x="425" y="359" style="fill:none;stroke:black;"/>
   <text width="197" height="20" x="430" y="373" style="fill:black;" font-family="Arial" font-size="16px">scheduled_status</text>
   <rect width="197" height="20" x="425" y="379" style="fill:none;stroke:black;"/>
   <text width="197" height="20" x="430" y="393" style="fill:black;" font-family="Arial" font-size="16px">submitted_at</text>
   <rect width="197" height="20" x="425" y="399" style="fill:none;stroke:black;"/>
   <text width="197" height="20" x="430" y="413" style="fill:black;" font-family="Arial" font-size="16px">submitted_status_code</text>
   <rect width="197" height="20" x="425" y="419" style="fill:none;stroke:black;"/>
   <text width="197" height="20" x="430" y="433" style="fill:black;" font-family="Arial" font-size="16px">submitted_status</text>
   <rect width="197" height="20" x="425" y="439" style="fill:none;stroke:black;"/>
   <text width="197" height="20" x="430" y="453" style="fill:black;" font-family="Arial" font-size="16px">whatsapp_api_message_id</text>
   <rect width="53" height="20" x="154" y="88" style="fill:#007;stroke:black;"/>
   <text width="53" height="20" x="159" y="102" style="fill:#fff;" font-family="Arial" font-size="16px"> mycart</text>
   <rect width="53" height="20" x="154" y="108" style="fill:#aea;stroke:black;"/>
   <text width="53" height="20" x="159" y="122" style="fill:black;" font-family="Arial" font-size="16px">cartid</text>
   <rect width="53" height="20" x="154" y="128" style="fill:none;stroke:black;"/>
   <text width="53" height="20" x="159" y="142" style="fill:black;" font-family="Arial" font-size="16px">userid</text>
   <rect width="53" height="20" x="154" y="148" style="fill:none;stroke:black;"/>
   <text width="53" height="20" x="159" y="162" style="fill:black;" font-family="Arial" font-size="16px">qty</text>
   <rect width="53" height="20" x="154" y="168" style="fill:none;stroke:black;"/>
   <text width="53" height="20" x="159" y="182" style="fill:black;" font-family="Arial" font-size="16px">itemid</text>
   <rect width="86" height="20" x="485" y="64" style="fill:#007;stroke:black;"/>
   <text width="86" height="20" x="490" y="78" style="fill:#fff;" font-family="Arial" font-size="16px"> users</text>
   <rect width="86" height="20" x="485" y="84" style="fill:#aea;stroke:black;"/>
   <text width="86" height="20" x="490" y="98" style="fill:black;" font-family="Arial" font-size="16px">userid</text>
   <rect width="86" height="20" x="485" y="104" style="fill:none;stroke:black;"/>
   <text width="86" height="20" x="490" y="118" style="fill:black;" font-family="Arial" font-size="16px">name</text>
   <rect width="86" height="20" x="485" y="124" style="fill:none;stroke:black;"/>
   <text width="86" height="20" x="490" y="138" style="fill:black;" font-family="Arial" font-size="16px">email</text>
   <rect width="86" height="20" x="485" y="144" style="fill:none;stroke:black;"/>
   <text width="86" height="20" x="490" y="158" style="fill:black;" font-family="Arial" font-size="16px">password</text>
   <rect width="86" height="20" x="485" y="164" style="fill:none;stroke:black;"/>
   <text width="86" height="20" x="490" y="178" style="fill:black;" font-family="Arial" font-size="16px">authToken</text>
   <rect width="86" height="20" x="485" y="184" style="fill:none;stroke:black;"/>
   <text width="86" height="20" x="490" y="198" style="fill:black;" font-family="Arial" font-size="16px">isadmin</text>
</svg>
