<?xml version="1.0" encoding="UTF-8"?>
<!DOCTYPE svg
PUBLIC "-//W3C//DTD SVG 1.1//EN"
       "http://www.w3.org/Graphics/SVG/1.1/DTD/svg11.dtd">
<svg viewBox="142 29 587 433" width="445px" height="404px" xmlns="http://www.w3.org/2000/svg" version="1.1">
   <rect width="197" height="20" x="157" y="44" style="fill:#007;stroke:black;"/>
   <text width="197" height="20" x="162" y="58" style="fill:#fff;" font-family="Arial" font-size="16px"> items</text>
   <rect width="197" height="20" x="157" y="64" style="fill:#aea;stroke:black;"/>
   <text width="197" height="20" x="162" y="78" style="fill:black;" font-family="Arial" font-size="16px">itemid</text>
   <rect width="197" height="20" x="157" y="84" style="fill:none;stroke:black;"/>
   <text width="197" height="20" x="162" y="98" style="fill:black;" font-family="Arial" font-size="16px">product</text>
   <rect width="197" height="20" x="157" y="104" style="fill:none;stroke:black;"/>
   <text width="197" height="20" x="162" y="118" style="fill:black;" font-family="Arial" font-size="16px">company</text>
   <rect width="197" height="20" x="157" y="124" style="fill:none;stroke:black;"/>
   <text width="197" height="20" x="162" y="138" style="fill:black;" font-family="Arial" font-size="16px">color</text>
   <rect width="197" height="20" x="157" y="144" style="fill:none;stroke:black;"/>
   <text width="197" height="20" x="162" y="158" style="fill:black;" font-family="Arial" font-size="16px">price</text>
   <rect width="197" height="20" x="157" y="164" style="fill:none;stroke:black;"/>
   <text width="197" height="20" x="162" y="178" style="fill:black;" font-family="Arial" font-size="16px">description</text>
   <rect width="197" height="20" x="157" y="184" style="fill:none;stroke:black;"/>
   <text width="197" height="20" x="162" y="198" style="fill:black;" font-family="Arial" font-size="16px">image</text>
   <rect width="197" height="20" x="157" y="204" style="fill:none;stroke:black;"/>
   <text width="197" height="20" x="162" y="218" style="fill:black;" font-family="Arial" font-size="16px">isbestseller</text>
   <rect width="197" height="20" x="157" y="224" style="fill:none;stroke:black;"/>
   <text width="197" height="20" x="162" y="238" style="fill:black;" font-family="Arial" font-size="16px">isNew</text>
   <rect width="197" height="20" x="157" y="244" style="fill:none;stroke:black;"/>
   <text width="197" height="20" x="162" y="258" style="fill:black;" font-family="Arial" font-size="16px">inStock</text>
   <rect width="197" height="20" x="157" y="264" style="fill:none;stroke:black;"/>
   <text width="197" height="20" x="162" y="278" style="fill:black;" font-family="Arial" font-size="16px">rating</text>
   <rect width="197" height="20" x="373" y="44" style="fill:#007;stroke:black;"/>
   <text width="197" height="20" x="378" y="58" style="fill:#fff;" font-family="Arial" font-size="16px"> messages</text>
   <rect width="197" height="20" x="373" y="64" style="fill:#aea;stroke:black;"/>
   <text width="197" height="20" x="378" y="78" style="fill:black;" font-family="Arial" font-size="16px">messageid</text>
   <rect width="197" height="20" x="373" y="84" style="fill:none;stroke:black;"/>
   <text width="197" height="20" x="378" y="98" style="fill:black;" font-family="Arial" font-size="16px">message</text>
   <rect width="197" height="20" x="373" y="104" style="fill:none;stroke:black;"/>
   <text width="197" height="20" x="378" y="118" style="fill:black;" font-family="Arial" font-size="16px">scheduled_at</text>
   <rect width="197" height="20" x="373" y="124" style="fill:none;stroke:black;"/>
   <text width="197" height="20" x="378" y="138" style="fill:black;" font-family="Arial" font-size="16px">destination_phone_number</text>
   <rect width="197" height="20" x="373" y="144" style="fill:none;stroke:black;"/>
   <text width="197" height="20" x="378" y="158" style="fill:black;" font-family="Arial" font-size="16px">userid</text>
   <rect width="197" height="20" x="373" y="164" style="fill:none;stroke:black;"/>
   <text width="197" height="20" x="378" y="178" style="fill:black;" font-family="Arial" font-size="16px">created_at</text>
   <rect width="197" height="20" x="373" y="184" style="fill:none;stroke:black;"/>
   <text width="197" height="20" x="378" y="198" style="fill:black;" font-family="Arial" font-size="16px">scheduled_status</text>
   <rect width="197" height="20" x="373" y="204" style="fill:none;stroke:black;"/>
   <text width="197" height="20" x="378" y="218" style="fill:black;" font-family="Arial" font-size="16px">submitted_at</text>
   <rect width="197" height="20" x="373" y="224" style="fill:none;stroke:black;"/>
   <text width="197" height="20" x="378" y="238" style="fill:black;" font-family="Arial" font-size="16px">submitted_status</text>
   <rect width="197" height="20" x="373" y="244" style="fill:none;stroke:black;"/>
   <text width="197" height="20" x="378" y="258" style="fill:black;" font-family="Arial" font-size="16px">whatsapp_api_message_id</text>
   <rect width="197" height="20" x="375" y="278" style="fill:#007;stroke:black;"/>
   <text width="197" height="20" x="380" y="292" style="fill:#fff;" font-family="Arial" font-size="16px"> mycart</text>
   <rect width="197" height="20" x="375" y="298" style="fill:#aea;stroke:black;"/>
   <text width="197" height="20" x="380" y="312" style="fill:black;" font-family="Arial" font-size="16px">cartid</text>
   <rect width="197" height="20" x="375" y="318" style="fill:none;stroke:black;"/>
   <text width="197" height="20" x="380" y="332" style="fill:black;" font-family="Arial" font-size="16px">userid</text>
   <rect width="197" height="20" x="375" y="338" style="fill:none;stroke:black;"/>
   <text width="197" height="20" x="380" y="352" style="fill:black;" font-family="Arial" font-size="16px">qty</text>
   <rect width="197" height="20" x="375" y="358" style="fill:none;stroke:black;"/>
   <text width="197" height="20" x="380" y="372" style="fill:black;" font-family="Arial" font-size="16px">itemid</text>
   <rect width="197" height="20" x="160" y="278" style="fill:#007;stroke:black;"/>
   <text width="197" height="20" x="165" y="292" style="fill:#fff;" font-family="Arial" font-size="16px"> users</text>
   <rect width="197" height="20" x="160" y="298" style="fill:#aea;stroke:black;"/>
   <text width="197" height="20" x="165" y="312" style="fill:black;" font-family="Arial" font-size="16px">userid</text>
   <rect width="197" height="20" x="160" y="318" style="fill:none;stroke:black;"/>
   <text width="197" height="20" x="165" y="332" style="fill:black;" font-family="Arial" font-size="16px">name</text>
   <rect width="197" height="20" x="160" y="338" style="fill:none;stroke:black;"/>
   <text width="197" height="20" x="165" y="352" style="fill:black;" font-family="Arial" font-size="16px">email</text>
   <rect width="197" height="20" x="160" y="358" style="fill:none;stroke:black;"/>
   <text width="197" height="20" x="165" y="372" style="fill:black;" font-family="Arial" font-size="16px">password</text>
   <rect width="197" height="20" x="160" y="378" style="fill:none;stroke:black;"/>
   <text width="197" height="20" x="165" y="392" style="fill:black;" font-family="Arial" font-size="16px">authToken</text>
   <rect width="197" height="20" x="160" y="398" style="fill:none;stroke:black;"/>
   <text width="197" height="20" x="165" y="412" style="fill:black;" font-family="Arial" font-size="16px">isadmin</text>
</svg>
